<svg xmlns="http://www.w3.org/2000/svg" xmlns:xlink="http://www.w3.org/1999/xlink" xmlns:xodm="http://www.corel.com/coreldraw/odm/2003" xml:space="preserve" width="3.2033mm" height="3.2548mm" style="shape-rendering:geometricPrecision; text-rendering:geometricPrecision; image-rendering:optimizeQuality; fill-rule:evenodd; clip-rule:evenodd" viewBox="0 0 12.58 12.78"> <defs> <style type="text/css"> <![CDATA[ .fil1 {fill:#53BEFB} .fil2 {fill:#9775E3} .fil0 {fill:#E265E7} ]]> </style> </defs> <g id="Слой_x0020_1"> <metadata id="CorelCorpID_0Corel-Layer"></metadata> <g id="_2450780551872"> <path class="fil0" d="M5.91 5.67l-1.97 -1.12 0 4.71c0,0.22 0.05,0.42 0.16,0.6 0.1,0.17 0.25,0.32 0.44,0.43l1.96 1.12 0 -4.71c0,-0.22 -0.05,-0.42 -0.16,-0.6 -0.1,-0.17 -0.25,-0.32 -0.44,-0.43z"></path> <path class="fil1" d="M12.57 5.8l0.01 -2.26 -4.1 2.31c-0.19,0.11 -0.34,0.25 -0.44,0.43 -0.1,0.17 -0.16,0.38 -0.16,0.6l-0.01 2.26 4.1 -2.31c0.19,-0.11 0.34,-0.25 0.44,-0.43 0.1,-0.17 0.16,-0.38 0.16,-0.6z"></path> <path class="fil0" d="M4.61 1.22l-1.97 1.1 4.02 2.44c0.19,0.11 0.39,0.17 0.59,0.18 0.2,0 0.41,-0.05 0.6,-0.15l1.97 -1.1 -4.02 -2.44c-0.19,-0.11 -0.39,-0.17 -0.59,-0.18 -0.2,-0 -0.41,0.05 -0.6,0.15z"></path> <path class="fil2" d="M12.57 2.11l0 -0.92c0,-0.22 -0.05,-0.42 -0.15,-0.59 -0.1,-0.17 -0.25,-0.32 -0.43,-0.43 -0.19,-0.11 -0.39,-0.17 -0.59,-0.17 -0.2,-0 -0.4,0.05 -0.59,0.16l-2.28 1.28 1.93 1.17c0.19,0.11 0.39,0.17 0.59,0.18 0.2,0 0.41,-0.05 0.6,-0.16l0.92 -0.52z"></path> <path class="fil1" d="M10.51 11.6l0 -2.48 -1.96 1.1c-0.19,0.11 -0.34,0.26 -0.45,0.43 -0.1,0.17 -0.16,0.38 -0.16,0.6l0 0.92 0.8 0.45c0.19,0.11 0.39,0.16 0.59,0.16 0.2,-0 0.4,-0.06 0.59,-0.17 0.19,-0.11 0.33,-0.26 0.43,-0.43 0.1,-0.17 0.15,-0.37 0.15,-0.59z"></path> <path class="fil2" d="M1.41 3.06l-0.8 0.45c-0.19,0.11 -0.34,0.25 -0.44,0.42 -0.1,0.17 -0.16,0.37 -0.16,0.59 -0,0.22 0.05,0.42 0.14,0.59 0.1,0.17 0.24,0.33 0.43,0.44l2.18 1.32 0 -2.33c0,-0.21 -0.05,-0.41 -0.15,-0.58 -0.1,-0.17 -0.24,-0.32 -0.42,-0.43l-0.77 -0.47z"></path> </g> </g> </svg> 